<svg width="33" height="33" viewBox="0 0 33 33" fill="none" xmlns="http://www.w3.org/2000/svg">
<g clip-path="url(#clip0_86_456)">
<path fill-rule="evenodd" clip-rule="evenodd" d="M7.46134 1.11947C13.4688 0.453584 19.5314 0.453584 25.5388 1.11947C28.865 1.49228 31.5484 4.11167 31.9387 7.44949C32.6511 13.5419 32.6511 19.6966 31.9387 25.7891C31.7412 27.411 31.0017 28.9186 29.84 30.0675C28.6784 31.2165 27.1627 31.9394 25.5388 32.1191C19.5315 32.787 13.4686 32.787 7.46134 32.1191C5.83738 31.9394 4.32172 31.2165 3.16008 30.0675C1.99843 28.9186 1.25891 27.411 1.06142 25.7891C0.348994 19.6973 0.348994 13.5432 1.06142 7.45143C1.25883 5.82984 1.99807 4.32243 3.15932 3.17351C4.32057 2.0246 5.83579 1.3015 7.4594 1.12141L7.46134 1.11947ZM16.5001 6.92523C16.8863 6.92523 17.2567 7.07866 17.5298 7.35176C17.8029 7.62487 17.9564 7.99529 17.9564 8.38152V15.164H24.7388C25.125 15.164 25.4954 15.3174 25.7685 15.5905C26.0417 15.8636 26.1951 16.234 26.1951 16.6203C26.1951 17.0065 26.0417 17.3769 25.7685 17.65C25.4954 17.9231 25.125 18.0765 24.7388 18.0765H17.9564V24.859C17.9564 25.2452 17.8029 25.6156 17.5298 25.8887C17.2567 26.1618 16.8863 26.3153 16.5001 26.3153C16.1138 26.3153 15.7434 26.1618 15.4703 25.8887C15.1972 25.6156 15.0438 25.2452 15.0438 24.859V18.0765H8.26133C7.8751 18.0765 7.50468 17.9231 7.23157 17.65C6.95847 17.3769 6.80504 17.0065 6.80504 16.6203C6.80504 16.234 6.95847 15.8636 7.23157 15.5905C7.50468 15.3174 7.8751 15.164 8.26133 15.164H15.0438V8.38152C15.0438 7.99529 15.1972 7.62487 15.4703 7.35176C15.7434 7.07866 16.1138 6.92523 16.5001 6.92523Z" fill="#FEBE40"/>
</g>
<defs>
<clipPath id="clip0_86_456">
<rect width="32" height="32" fill="white" transform="translate(0.5 0.620056)"/>
</clipPath>
</defs>
</svg>
