<svg width="24" height="24" viewBox="0 0 24 24" fill="none" xmlns="http://www.w3.org/2000/svg">
<path d="M4.8002 9.6C4.79954 8.10403 5.26487 6.645 6.13154 5.42565C6.9982 4.2063 8.22316 3.28718 9.6362 2.796C9.58148 2.45317 9.60178 2.10255 9.69572 1.76834C9.78965 1.43412 9.95498 1.12426 10.1803 0.860135C10.4056 0.596011 10.6855 0.383913 11.0008 0.238473C11.316 0.0930336 11.659 0.0177155 12.0062 0.0177155C12.3534 0.0177155 12.6964 0.0930336 13.0116 0.238473C13.3269 0.383913 13.6068 0.596011 13.8321 0.860135C14.0574 1.12426 14.2227 1.43412 14.3167 1.76834C14.4106 2.10255 14.4309 2.45317 14.3762 2.796C15.787 3.28919 17.0094 4.20917 17.8737 5.42835C18.7381 6.64753 19.2017 8.10549 19.2002 9.6V16.8L22.8002 19.2V20.4H1.2002V19.2L4.8002 16.8V9.6ZM14.4002 21.6C14.4002 22.2365 14.1473 22.847 13.6973 23.2971C13.2472 23.7471 12.6367 24 12.0002 24C11.3637 24 10.7532 23.7471 10.3031 23.2971C9.85305 22.847 9.6002 22.2365 9.6002 21.6H14.4002Z" fill="#A4A2A4"/>
</svg>
