<svg width="24" height="25" viewBox="0 0 24 25" fill="none" xmlns="http://www.w3.org/2000/svg">
<g clip-path="url(#clip0_86_458)">
<path d="M22.7108 20.9117V9.71599C22.7108 9.51151 22.6632 9.30984 22.5718 9.12695C22.4803 8.94405 22.3475 8.78496 22.184 8.66227L12.9639 1.74725C12.7359 1.57626 12.4586 1.48383 12.1736 1.48383C11.8887 1.48383 11.6114 1.57626 11.3834 1.74725L2.16333 8.66227C1.99975 8.78496 1.86698 8.94405 1.77553 9.12695C1.68408 9.30984 1.63647 9.51151 1.63647 9.71599V20.9117C1.63647 21.2611 1.77525 21.5961 2.02226 21.8431C2.26927 22.0901 2.60429 22.2289 2.95362 22.2289H8.22221C8.57154 22.2289 8.90656 22.0901 9.15357 21.8431C9.40058 21.5961 9.53935 21.2611 9.53935 20.9117V16.9603C9.53935 16.611 9.67812 16.2759 9.92514 16.0289C10.1721 15.7819 10.5072 15.6431 10.8565 15.6431H13.4908C13.8401 15.6431 14.1751 15.7819 14.4222 16.0289C14.6692 16.2759 14.8079 16.611 14.8079 16.9603V20.9117C14.8079 21.2611 14.9467 21.5961 15.1937 21.8431C15.4407 22.0901 15.7758 22.2289 16.1251 22.2289H21.3937C21.743 22.2289 22.078 22.0901 22.325 21.8431C22.572 21.5961 22.7108 21.2611 22.7108 20.9117Z" fill="#A4A2A4" stroke="#A4A2A4" stroke-width="2" stroke-linecap="round" stroke-linejoin="round"/>
</g>
<defs>
<clipPath id="clip0_86_458">
<rect width="24" height="24" fill="white" transform="translate(0 0.0270386)"/>
</clipPath>
</defs>
</svg>
