<svg width="25" height="25" viewBox="0 0 25 25" fill="none" xmlns="http://www.w3.org/2000/svg">
<g clip-path="url(#clip0_86_454)">
<path d="M12.8157 21.841C15.0633 21.8407 17.2469 21.0929 19.0228 19.7153C20.7987 18.3377 22.066 16.4087 22.6253 14.2318C23.1845 12.055 23.0039 9.75391 22.1118 7.69096C21.2198 5.62801 19.667 3.92032 17.6979 2.83674C15.7288 1.75315 13.4552 1.35521 11.2352 1.70557C9.01508 2.05593 6.97457 3.13469 5.43487 4.77201C3.89517 6.40934 2.94373 8.51224 2.73034 10.7496C2.51695 12.987 3.05373 15.2319 4.25617 17.1307L2.68608 21.841L7.39636 20.2709C9.01657 21.2994 10.8966 21.8441 12.8157 21.841Z" fill="#A4A2A4" stroke="#A4A2A4" stroke-width="2" stroke-linecap="round" stroke-linejoin="round"/>
</g>
<defs>
<clipPath id="clip0_86_454">
<rect width="24" height="24" fill="white" transform="translate(0.5 0.0270386)"/>
</clipPath>
</defs>
</svg>
