<svg width="25" height="25" viewBox="0 0 25 25" fill="none" xmlns="http://www.w3.org/2000/svg">
<path d="M23.0842 10.4932C23.0842 9.96273 22.8735 9.45402 22.4984 9.07895C22.1234 8.70388 21.6147 8.49316 21.0842 8.49316H14.7642L15.7242 3.92316C15.7442 3.82316 15.7542 3.71316 15.7542 3.60316C15.7542 3.19316 15.5842 2.81316 15.3142 2.54316L14.2542 1.49316L7.67423 8.07316C7.30423 8.44316 7.08423 8.94316 7.08423 9.49316V19.4932C7.08423 20.0236 7.29494 20.5323 7.67001 20.9074C8.04509 21.2824 8.5538 21.4932 9.08423 21.4932H18.0842C18.9142 21.4932 19.6242 20.9932 19.9242 20.2732L22.9442 13.2232C23.0342 12.9932 23.0842 12.7532 23.0842 12.4932V10.4932ZM1.08423 21.4932H5.08423V9.49316H1.08423V21.4932Z" fill="#A4A2A4"/>
</svg>
