<svg width="29" height="29" viewBox="0 0 29 29" fill="none" xmlns="http://www.w3.org/2000/svg">
<rect x="0.489746" y="0.244995" width="28.293" height="28.293" rx="4" fill="#3C638E"/>
<path d="M14.6361 14.0581C14.1941 14.0581 13.7702 13.8825 13.4576 13.57C13.1451 13.2574 12.9695 12.8335 12.9695 12.3915C12.9695 11.9494 13.1451 11.5255 13.4576 11.2129C13.7702 10.9004 14.1941 10.7248 14.6361 10.7248C15.0782 10.7248 15.5021 10.9004 15.8147 11.2129C16.1272 11.5255 16.3028 11.9494 16.3028 12.3915C16.3028 12.6103 16.2597 12.8271 16.1759 13.0293C16.0922 13.2315 15.9694 13.4152 15.8147 13.57C15.6599 13.7247 15.4762 13.8475 15.274 13.9313C15.0717 14.015 14.855 14.0581 14.6361 14.0581ZM14.6361 7.72479C13.3985 7.72479 12.2115 8.21646 11.3363 9.09163C10.4611 9.9668 9.96948 11.1538 9.96948 12.3915C9.96948 15.8915 14.6361 21.0581 14.6361 21.0581C14.6361 21.0581 19.3028 15.8915 19.3028 12.3915C19.3028 11.1538 18.8111 9.9668 17.936 9.09163C17.0608 8.21646 15.8738 7.72479 14.6361 7.72479Z" fill="white"/>
</svg>
