<svg width="29" height="29" viewBox="0 0 29 29" fill="none" xmlns="http://www.w3.org/2000/svg">
<rect x="0.489502" y="0.244995" width="28.293" height="28.293" rx="4" fill="#3C638E"/>
<path d="M7.55273 18.7665C7.55273 19.829 8.47357 20.6415 9.67773 20.6415H19.5944C20.7986 20.6415 21.7194 19.829 21.7194 18.7665V13.7665H7.55273V18.7665ZM19.5944 9.39148H18.1777V8.76648C18.1777 8.39148 17.8944 8.14148 17.4694 8.14148C17.0444 8.14148 16.7611 8.39148 16.7611 8.76648V9.39148H12.5111V8.76648C12.5111 8.39148 12.2277 8.14148 11.8027 8.14148C11.3777 8.14148 11.0944 8.39148 11.0944 8.76648V9.39148H9.67773C8.47357 9.39148 7.55273 10.204 7.55273 11.2665V12.5165H21.7194V11.2665C21.7194 10.204 20.7986 9.39148 19.5944 9.39148Z" fill="white"/>
</svg>
