<svg width="23" height="23" viewBox="0 0 23 23" fill="none" xmlns="http://www.w3.org/2000/svg">
<g clip-path="url(#clip0_86_457)">
<path d="M18.7748 2.78314C16.8343 1.06882 14.2866 0.0270386 11.4999 0.0270386C7.98897 0.0270386 4.8574 1.68082 2.84208 4.24996C2.78859 4.31816 2.81368 4.41948 2.89287 4.45462C4.71694 5.26317 7.16766 5.72018 9.74519 5.72018C14.2355 5.72018 17.5594 4.39064 18.7868 2.97225C18.835 2.91647 18.83 2.83195 18.7748 2.78314Z" fill="#A4A2A4"/>
<path d="M21.4052 15.3596C21.4045 15.3597 21.4037 15.3597 21.403 15.3597C18.0861 15.3597 14.9408 16.2491 12.5464 17.8641C10.9409 18.947 9.83195 20.2749 9.34335 21.6561C9.31585 21.7339 9.36273 21.8189 9.44381 21.8343C10.1101 21.9608 10.7975 22.027 11.5 22.027C15.9548 22.027 19.7991 19.3649 21.5269 15.5482C21.5668 15.4603 21.5017 15.3597 21.4052 15.3596Z" fill="#A4A2A4"/>
<path d="M20.2863 4.41672C20.2369 4.35124 20.1396 4.34535 20.0832 4.40487C18.2164 6.37236 14.2491 7.64445 9.74524 7.64445C6.77773 7.64445 3.92646 7.07782 1.82365 6.08047C1.75761 6.04919 1.6785 6.07553 1.64593 6.14097C0.912629 7.61369 0.5 9.27314 0.5 11.027C0.5 15.6124 3.32038 19.5514 7.31742 21.2007C7.38927 21.2304 7.47039 21.1917 7.49527 21.1181C8.1062 19.3087 9.48154 17.6103 11.4704 16.2689C14.1792 14.4418 17.7067 13.4355 21.403 13.4355C21.642 13.4355 21.8804 13.4401 22.1183 13.4481C22.183 13.4503 22.2405 13.4063 22.2542 13.3429C22.4149 12.596 22.5 11.8214 22.5 11.027C22.5 8.54796 21.6752 6.25824 20.2863 4.41672Z" fill="#A4A2A4"/>
</g>
<defs>
<clipPath id="clip0_86_457">
<rect width="22" height="22" fill="white" transform="translate(0.5 0.0270386)"/>
</clipPath>
</defs>
</svg>
