<svg width="18" height="20" viewBox="0 0 18 20" fill="none" xmlns="http://www.w3.org/2000/svg">
<path d="M15 14.0732C14.24 14.0732 13.56 14.3732 13.04 14.8432L5.91 10.6932C5.96 10.4632 6 10.2332 6 9.99316C6 9.75316 5.96 9.52316 5.91 9.29316L12.96 5.18316C13.5 5.68316 14.21 5.99316 15 5.99316C16.66 5.99316 18 4.65316 18 2.99316C18 1.33316 16.66 -0.00683594 15 -0.00683594C13.34 -0.00683594 12 1.33316 12 2.99316C12 3.23316 12.04 3.46316 12.09 3.69316L5.04 7.80316C4.5 7.30316 3.79 6.99316 3 6.99316C1.34 6.99316 0 8.33316 0 9.99316C0 11.6532 1.34 12.9932 3 12.9932C3.79 12.9932 4.5 12.6832 5.04 12.1832L12.16 16.3432C12.11 16.5532 12.08 16.7732 12.08 16.9932C12.08 18.6032 13.39 19.9132 15 19.9132C16.61 19.9132 17.92 18.6032 17.92 16.9932C17.92 15.3832 16.61 14.0732 15 14.0732Z" fill="#A4A2A4"/>
</svg>
