<svg width="143" height="148" viewBox="0 0 143 148" fill="none" xmlns="http://www.w3.org/2000/svg">
<g filter="url(#filter0_d_86_488)">
<mask id="path-1-inside-1_86_488" fill="white">
<path d="M74.5507 9.2761C63.085 9.23205 51.8215 12.2957 41.9578 18.1415C32.0941 23.9872 23.9987 32.3966 18.5323 42.4755C13.0659 52.5544 10.4328 63.9262 10.9129 75.382C11.393 86.8378 14.9683 97.9494 21.2588 107.536C27.5493 117.122 36.3199 124.824 46.6381 129.824C56.9563 134.824 68.4366 136.935 79.8585 135.932C91.2804 134.929 102.217 130.849 111.506 124.127C120.794 117.405 128.088 108.291 132.611 97.7554L74.307 72.7253L74.5507 9.2761Z"/>
</mask>
<path d="M74.5507 9.2761C63.085 9.23205 51.8215 12.2957 41.9578 18.1415C32.0941 23.9872 23.9987 32.3966 18.5323 42.4755C13.0659 52.5544 10.4328 63.9262 10.9129 75.382C11.393 86.8378 14.9683 97.9494 21.2588 107.536C27.5493 117.122 36.3199 124.824 46.6381 129.824C56.9563 134.824 68.4366 136.935 79.8585 135.932C91.2804 134.929 102.217 130.849 111.506 124.127C120.794 117.405 128.088 108.291 132.611 97.7554L74.307 72.7253L74.5507 9.2761Z" stroke="url(#paint0_linear_86_488)" stroke-width="16" shape-rendering="crispEdges" mask="url(#path-1-inside-1_86_488)"/>
</g>
<defs>
<filter id="filter0_d_86_488" x="0.857178" y="0.275635" width="141.754" height="146.899" filterUnits="userSpaceOnUse" color-interpolation-filters="sRGB">
<feFlood flood-opacity="0" result="BackgroundImageFix"/>
<feColorMatrix in="SourceAlpha" type="matrix" values="0 0 0 0 0 0 0 0 0 0 0 0 0 0 0 0 0 0 127 0" result="hardAlpha"/>
<feOffset dy="1"/>
<feGaussianBlur stdDeviation="5"/>
<feComposite in2="hardAlpha" operator="out"/>
<feColorMatrix type="matrix" values="0 0 0 0 0 0 0 0 0 0 0 0 0 0 0 0 0 0 0.1 0"/>
<feBlend mode="normal" in2="BackgroundImageFix" result="effect1_dropShadow_86_488"/>
<feBlend mode="normal" in="SourceGraphic" in2="effect1_dropShadow_86_488" result="shape"/>
</filter>
<linearGradient id="paint0_linear_86_488" x1="138" y1="102.199" x2="29.0437" y2="19.2963" gradientUnits="userSpaceOnUse">
<stop stop-color="#5A8D7E"/>
<stop offset="1" stop-color="#B9DFD4" stop-opacity="0.66"/>
</linearGradient>
</defs>
</svg>
