<svg width="26" height="26" viewBox="0 0 26 26" fill="none" xmlns="http://www.w3.org/2000/svg">
<path d="M3.8045 2.26071C2.87637 1.79665 1.84668 2.67946 2.16465 3.66775L4.39746 10.6076C4.44136 10.744 4.52194 10.8657 4.63039 10.9594C4.73883 11.0531 4.87096 11.1152 5.01231 11.1388L14.285 12.6849C14.7201 12.7576 14.7201 13.3826 14.285 13.4552L5.01309 15.0006C4.8716 15.0241 4.7393 15.0861 4.63071 15.1798C4.52212 15.2735 4.44142 15.3953 4.39746 15.5318L2.16465 22.474C1.84668 23.4623 2.87559 24.3451 3.8045 23.881L23.3311 14.1193C24.1951 13.6873 24.1951 12.4552 23.3311 12.0224L3.8045 2.26071Z" fill="#3C638E"/>
</svg>
