<svg width="29" height="29" viewBox="0 0 29 29" fill="none" xmlns="http://www.w3.org/2000/svg">
<rect x="0.450684" y="0.550781" width="28.293" height="28.293" rx="4" fill="#3C638E"/>
<path d="M20.5972 20.6972L17.7018 17.8019M17.7018 17.8019C18.1971 17.3066 18.59 16.7186 18.858 16.0716C19.126 15.4245 19.264 14.7309 19.264 14.0305C19.264 13.3301 19.126 12.6366 18.858 11.9895C18.59 11.3424 18.1971 10.7544 17.7018 10.2592C17.2066 9.76393 16.6186 9.37107 15.9715 9.10304C15.3245 8.83501 14.6309 8.69705 13.9305 8.69705C13.2301 8.69705 12.5366 8.83501 11.8895 9.10304C11.2424 9.37107 10.6544 9.76393 10.1592 10.2592C9.15896 11.2594 8.59705 12.616 8.59705 14.0305C8.59705 15.445 9.15896 16.8016 10.1592 17.8019C11.1594 18.8021 12.516 19.364 13.9305 19.364C15.345 19.364 16.7016 18.8021 17.7018 17.8019Z" stroke="white" stroke-width="2.5" stroke-linecap="round" stroke-linejoin="round"/>
</svg>
