<svg width="24" height="25" viewBox="0 0 24 25" fill="none" xmlns="http://www.w3.org/2000/svg">
<path d="M21.075 13.952C21.075 13.7332 20.9881 13.5234 20.8334 13.3687C20.6787 13.214 20.4689 13.127 20.25 13.127H16.95C16.7312 13.127 16.5214 13.214 16.3667 13.3687C16.212 13.5234 16.125 13.7332 16.125 13.952V21.377H14.475V3.50204C14.475 2.70124 14.4728 2.18204 14.4222 1.80144C14.3738 1.44394 14.2957 1.33174 14.233 1.26904C14.1703 1.20634 14.0581 1.12824 13.7006 1.07984C13.3189 1.02924 12.8008 1.02704 12 1.02704C11.1992 1.02704 10.68 1.02924 10.2994 1.07984C9.94195 1.12824 9.82975 1.20634 9.76705 1.26904C9.70435 1.33174 9.62625 1.44394 9.57785 1.80144C9.52725 2.18314 9.52505 2.70124 9.52505 3.50204V21.377H7.87505V8.45204C7.87505 8.23324 7.78813 8.02339 7.63341 7.86868C7.47869 7.71396 7.26885 7.62704 7.05005 7.62704H3.75005C3.53125 7.62704 3.3214 7.71396 3.16669 7.86868C3.01197 8.02339 2.92505 8.23324 2.92505 8.45204V21.377H1.00005C0.781245 21.377 0.571403 21.464 0.416686 21.6187C0.261968 21.7734 0.175049 21.9832 0.175049 22.202C0.175049 22.4208 0.261968 22.6307 0.416686 22.7854C0.571403 22.9401 0.781245 23.027 1.00005 23.027H23C23.2189 23.027 23.4287 22.9401 23.5834 22.7854C23.7381 22.6307 23.825 22.4208 23.825 22.202C23.825 21.9832 23.7381 21.7734 23.5834 21.6187C23.4287 21.464 23.2189 21.377 23 21.377H21.075V13.952Z" fill="#A4A2A4"/>
</svg>
